<svg xmlns="http://www.w3.org/2000/svg" width="820" height="216" viewBox="0 0 820 216" font-family="Helvetica,Arial,sans-serif">
<rect width="820" height="216" fill="white"/>
<text x="410.0" y="24" text-anchor="middle" font-size="16" font-weight="bold" fill="#222222">Best-vs-best on the gold metric (n=150, MRR)</text>
<line x1="250.0" y1="74" x2="250.0" y2="170" stroke="#E6E6E6"/>
<text x="250.0" y="188" text-anchor="middle" font-size="11" fill="#888888">0</text>
<line x1="372.3" y1="74" x2="372.3" y2="170" stroke="#E6E6E6"/>
<text x="372.3" y="188" text-anchor="middle" font-size="11" fill="#888888">0.1</text>
<line x1="494.6" y1="74" x2="494.6" y2="170" stroke="#E6E6E6"/>
<text x="494.6" y="188" text-anchor="middle" font-size="11" fill="#888888">0.2</text>
<line x1="616.9" y1="74" x2="616.9" y2="170" stroke="#E6E6E6"/>
<text x="616.9" y="188" text-anchor="middle" font-size="11" fill="#888888">0.3</text>
<line x1="739.2" y1="74" x2="739.2" y2="170" stroke="#E6E6E6"/>
<text x="739.2" y="188" text-anchor="middle" font-size="11" fill="#888888">0.4</text>
<text x="500.0" y="208" text-anchor="middle" font-size="12" fill="#222222">MRR (higher is better)</text>
<line x1="250.0" y1="74" x2="250.0" y2="170" stroke="#888888"/>
<line x1="472.6" y1="74" x2="472.6" y2="170" stroke="#E45756" stroke-width="1.5" stroke-dasharray="5,4"/>
<text x="472.6" y="68" text-anchor="middle" font-size="10.5" fill="#E45756">random 0.182</text>
<text x="240" y="91.0" text-anchor="end" font-size="12" fill="#222222">RDF2Vec  global_depth1_fullcorpus</text>
<rect x="250.0" y="76.0" width="446.4" height="14" fill="#54A24B"/>
<text x="701.4" y="87.0" text-anchor="start" font-size="10.5" fill="#222222">0.365</text>
<text x="240" y="123.0" text-anchor="end" font-size="12" fill="#222222">Embedding  bge-large-en + label</text>
<rect x="250.0" y="108.0" width="433.0" height="14" fill="#54A24B"/>
<text x="688.0" y="119.0" text-anchor="start" font-size="10.5" fill="#222222">0.354</text>
<text x="240" y="155.0" text-anchor="end" font-size="12" fill="#222222">Embedding production (mMiniLM)</text>
<rect x="250.0" y="140.0" width="318.0" height="14" fill="#54A24B"/>
<text x="573.0" y="151.0" text-anchor="start" font-size="10.5" fill="#222222">0.260</text>
</svg>