<svg xmlns="http://www.w3.org/2000/svg" width="820" height="184" viewBox="0 0 820 184" font-family="Helvetica,Arial,sans-serif">
<rect width="820" height="184" fill="white"/>
<text x="410.0" y="24" text-anchor="middle" font-size="16" font-weight="bold" fill="#222222">RDF2Vec-best minus embedding-best: ΔMRR with 95% CI (n=150)</text>
<line x1="347.7" y1="74" x2="347.7" y2="138" stroke="#E6E6E6"/>
<text x="347.7" y="156" text-anchor="middle" font-size="11" fill="#888888">-0.05</text>
<line x1="456.8" y1="74" x2="456.8" y2="138" stroke="#E6E6E6"/>
<text x="456.8" y="156" text-anchor="middle" font-size="11" fill="#888888">0</text>
<line x1="565.9" y1="74" x2="565.9" y2="138" stroke="#E6E6E6"/>
<text x="565.9" y="156" text-anchor="middle" font-size="11" fill="#888888">0.05</text>
<line x1="675.0" y1="74" x2="675.0" y2="138" stroke="#E6E6E6"/>
<text x="675.0" y="156" text-anchor="middle" font-size="11" fill="#888888">0.1</text>
<line x1="784.0" y1="74" x2="784.0" y2="138" stroke="#E6E6E6"/>
<text x="784.0" y="156" text-anchor="middle" font-size="11" fill="#888888">0.15</text>
<text x="535.0" y="176" text-anchor="middle" font-size="12" fill="#222222">ΔMRR (positive = RDF2Vec ahead; CI crossing 0 = tie)</text>
<line x1="456.8" y1="74" x2="456.8" y2="138" stroke="#888888"/>
<text x="310" y="91.0" text-anchor="end" font-size="12" fill="#222222">vs UNDER-optimized embedding (e5-large, 0.304)</text>
<rect x="456.8" y="76.0" width="133.1" height="14" fill="#4C78A8"/>
<line x1="456.8" y1="83.0" x2="718.6" y2="83.0" stroke="#222222" stroke-width="1.2"/>
<line x1="456.8" y1="80.0" x2="456.8" y2="86.0" stroke="#222222" stroke-width="1.2"/>
<line x1="718.6" y1="80.0" x2="718.6" y2="86.0" stroke="#222222" stroke-width="1.2"/>
<text x="723.6" y="87.0" text-anchor="start" font-size="10.5" fill="#222222">0.061</text>
<text x="310" y="123.0" text-anchor="end" font-size="12" fill="#222222">vs OPTIMIZED embedding (bge-large-en+label, 0.354)</text>
<rect x="456.8" y="108.0" width="24.0" height="14" fill="#4C78A8"/>
<line x1="334.7" y1="115.0" x2="622.6" y2="115.0" stroke="#222222" stroke-width="1.2"/>
<line x1="334.7" y1="112.0" x2="334.7" y2="118.0" stroke="#222222" stroke-width="1.2"/>
<line x1="622.6" y1="112.0" x2="622.6" y2="118.0" stroke="#222222" stroke-width="1.2"/>
<text x="627.6" y="119.0" text-anchor="start" font-size="10.5" fill="#222222">0.011</text>
</svg>